#!OML:ASF F:\VICON\USERDATA\INSTALL\rory3\rory3.ASF
:FULLY-SPECIFIED
:DEGREES
279
root -0.185997 16.5385 -2.44794 -161.607 3.03975 -177.658
lowerback -3.75181 8.3907 -1.38171
upperback -7.57795 11.8199 -3.6266
thorax -5.32235 6.16507 -3.10439
lowerneck -20.0016 -6.09124 -4.76459
upperneck 32.2963 -12.839 8.87093
head 15.7414 -5.48708 1.83954
rclavicle 2.21148e-015 -1.39149e-014
rhumerus -24.1629 20.1347 -74.7421
rradius 101.735
rwrist -106.738
rhand 21.0166 4.21034
rfingers 7.12502
rthumb 45.4809 -19.0972
lclavicle 2.21148e-015 -1.39149e-014
lhumerus -85.3896 -4.38986 73.0209
lradius 82.9729
lwrist 66.9398
lhand 22.2361 15.799
lfingers 7.12502
lthumb 46.6122 38.6342
rfemur -12.3065 9.91186 30.7539
rtibia 50.9936
rfoot 17.7001 -7.02628
rtoes 16.885
lfemur -73.8059 -7.19247 -11.7189
ltibia 58.1675
lfoot 0.27161 1.05102
ltoes -22.3183
280
root -0.224738 16.4976 -2.6773 -162.275 3.30825 -175.906
lowerback -3.56252 8.82976 0.768723
upperback -7.2496 12.3174 -3.3733
thorax -4.67733 6.29115 -3.91553
lowerneck -20.2221 -6.14946 -4.50163
upperneck 32.1633 -13.2178 9.35863
head 15.8026 -5.54853 1.90905
rclavicle 1.06797e-013 3.26007e-014
rhumerus -24.2273 21.4307 -74.7942
rradius 102.088
rwrist -109.602
rhand 22.543 2.83621
rfingers 7.12502
rthumb 46.8963 -19.8755
lclavicle 1.06797e-013 3.26007e-014
lhumerus -86.491 -2.83419 71.8724
lradius 85.7407
lwrist 66.4231
lhand 24.2393 15.1589
lfingers 7.12502
lthumb 48.4618 37.1533
rfemur -13.107 8.95366 31.9463
rtibia 55.0797
rfoot 22.1125 -10.9606
rtoes 18.5859
lfemur -73.2131 -7.08389 -10.3074
ltibia 59.901
lfoot 0.41373 2.15193
ltoes -20.683
281
root -0.25165 16.4502 -2.89817 -163.04 3.72452 -174.459
lowerback -2.84064 9.21174 2.48586
upperback -7.23389 12.7989 -3.25842
thorax -4.70052 6.43346 -4.78408
lowerneck -19.9689 -6.11993 -3.9371
upperneck 32.1139 -13.6063 9.69348
head 15.7561 -5.6392 1.87304
rclavicle -7.25564e-015 -2.78299e-014
rhumerus -25.0693 22.673 -75.3568
rradius 102.58
rwrist -111.169
rhand 23.1852 1.77532
rfingers 7.12502
rthumb 47.49 -20.672
lclavicle -7.25564e-015 -2.78299e-014
lhumerus -87.6246 -1.39012 70.4645
lradius 88.0378
lwrist 65.7967
lhand 24.4709 15.1575
lfingers 7.12502
lthumb 48.6749 37.0492
rfemur -14.3804 8.01992 32.8602
rtibia 59.9538
rfoot 26.3423 -15.2114
rtoes 18.5621
lfemur -72.3414 -6.88949 -9.31138
ltibia 61.6399
lfoot 0.520265 3.0512
ltoes -20.1776
282
root -0.263482 16.4138 -3.11013 -164.049 4.53096 -173.575
lowerback -1.14786 9.70142 3.54298
upperback -7.64872 13.5189 -3.48335
thorax -5.74331 6.68232 -5.91838
lowerneck -19.0879 -6.11407 -3.20096
upperneck 32.0711 -14.2429 10.1692
head 15.5973 -5.85587 1.83102
rclavicle 4.94477e-015 0
rhumerus -27.0478 23.6306 -76.6266
rradius 103.279
rwrist -111.133
rhand 22.7519 2.00631
rfingers 7.12502
rthumb 47.0895 -20.6204
lclavicle 4.94477e-015 0
lhumerus -88.7892 -0.729746 69.1075
lradius 90.3426
lwrist 65.4525
lhand 26.4535 14.1712
lfingers 7.12502
lthumb 50.4922 35.1316
rfemur -15.9113 7.27305 33.1173
rtibia 65.437
rfoot 29.6059 -19.0641
rtoes 24.4563
lfemur -70.9742 -6.49541 -9.08155
ltibia 63.1023
lfoot 0.643961 3.72763
ltoes -21.9019
283
root -0.276029 16.3749 -3.3233 -165.299 5.45105 -172.692
lowerback 1.19112 10.4186 4.83781
upperback -8.31557 14.6498 -3.967
thorax -7.23479 7.06251 -7.65104
lowerneck -17.7734 -6.32399 -2.45754
upperneck 31.9817 -15.3379 10.8595
head 15.3925 -6.28862 1.79701
rclavicle 1.94859e-013 8.5875e-014
rhumerus -30.1089 23.7649 -78.4023
rradius 104.126
rwrist -109.21
rhand 22.1826 2.95292
rfingers 7.12502
rthumb 46.5626 -19.9036
lclavicle 1.94859e-013 8.5875e-014
lhumerus -89.3766 -1.06714 67.8253
lradius 92.2924
lwrist 65.1239
lhand 26.432 15.0602
lfingers 7.12502
lthumb 50.4725 36.0312
rfemur -17.5065 6.58923 33.2547
rtibia 71.2485
rfoot 32.6064 -20.5693
rtoes 25.3878
lfemur -69.0096 -6.07775 -8.99649
ltibia 64.2907
lfoot 0.505564 4.17647
ltoes -25.1708
284
root -0.28772 16.3346 -3.52193 -166.397 5.7221 -172.271
lowerback 2.2012 10.5057 5.73101
upperback -7.64008 14.7248 -3.8481
thorax -6.87745 7.02637 -8.0817
lowerneck -18.457 -6.41736 -2.2085
upperneck 31.7735 -15.4686 10.8946
head 15.4484 -6.25783 1.71779
rclavicle -4.27884e-014 3.18055e-014
rhumerus -30.251 25.0907 -78.5106
rradius 104.447
rwrist -106.267
rhand 22.2084 3.49753
rfingers 7.12502
rthumb 46.5866 -19.3487
lclavicle -4.27884e-014 3.18055e-014
lhumerus -88.2717 1.45549 66.912
lradius 93.6606
lwrist 63.8816
lhand 29.7726 12.5489
lfingers 7.12502
lthumb 53.5024 31.7179
rfemur -19.7479 5.50446 32.9748
rtibia 77.2754
rfoot 35.9539 -19.2098
rtoes 23.8121
lfemur -67.0573 -6.1593 -9.33145
ltibia 65.1564
lfoot 0.441897 3.92433
ltoes -27.3165
285
root -0.292492 16.2891 -3.72887 -167.408 6.34524 -172.125
lowerback 3.72771 10.5787 6.04034
upperback -7.58595 14.8862 -3.89411
thorax -7.57708 7.00935 -8.62947
lowerneck -18.6127 -6.40374 -1.64281
upperneck 31.9012 -15.6875 10.79
head 15.507 -6.29922 1.52629
rclavicle -1.89193e-013 -6.59965e-014
rhumerus -31.6046 25.8349 -79.2962
rradius 104.549
rwrist -102.173
rhand 23.8549 3.0508
rfingers 7.12502
rthumb 48.1078 -19.1116
lclavicle -1.89193e-013 -6.59965e-014
lhumerus -87.4502 3.62539 65.6807
lradius 95.2012
lwrist 63.4542
lhand 30.6503 12.8512
lfingers 7.12502
lthumb 54.2906 31.4908
rfemur -22.2442 4.8053 32.3063
rtibia 83.3823
rfoot 39.4568 -16.3686
rtoes 23.1706
lfemur -64.9794 -5.91341 -9.97621
ltibia 65.8767
lfoot 0.571218 3.42121
ltoes -26.9265
286
root -0.285898 16.2005 -3.94107 -168.401 7.40509 -172.035
lowerback 4.80341 10.7744 6.18721
upperback -7.18568 15.1321 -3.93595
thorax -7.65987 7.08609 -8.93392
lowerneck -19.1981 -6.341 -1.0935
upperneck 31.8584 -15.7133 10.68
head 15.564 -6.22085 1.36224
rclavicle 1.01231e-013 4.29375e-014
rhumerus -32.1926 26.2573 -79.5682
rradius 104.556
rwrist -96.8544
rhand 25.7829 2.54184
rfingers 7.12502
rthumb 49.879 -18.7442
lclavicle 1.01231e-013 4.29375e-014
lhumerus -85.6102 6.17699 65.0516
lradius 97.2809
lwrist 64.2775
lhand 27.9651 15.1105
lfingers 7.12502
lthumb 51.8685 35.2939
rfemur -25.1536 4.88677 31.8299
rtibia 89.7318
rfoot 42.2499 -12.2222
rtoes 17.8824
lfemur -62.8811 -5.12447 -10.7664
ltibia 66.5218
lfoot 0.960563 3.06448
ltoes -26.6632
287
root -0.271785 16.1003 -4.15762 -169.315 8.21706 -171.879
lowerback 5.05092 11.1362 6.42542
upperback -6.29874 15.5218 -3.82554
thorax -6.72612 7.31866 -8.84445
lowerneck -19.8905 -6.54276 -1.17037
upperneck 31.4472 -15.9371 10.9748
head 15.5937 -6.23322 1.42419
rclavicle 4.85532e-014 1.27222e-014
rhumerus -31.7516 26.1581 -78.315
rradius 104.492
rwrist -90.989
rhand 27.7125 2.00274
rfingers 7.12502
rthumb 51.6391 -18.3148
lclavicle 4.85532e-014 1.27222e-014
lhumerus -82.3843 8.6504 65.8631
lradius 99.2617
lwrist 65.0268
lhand 28.2537 14.6992
lfingers 7.12502
lthumb 52.1303 34.7271
rfemur -28.4731 5.18047 31.6385
rtibia 96.0605
rfoot 44.8006 -9.42883
rtoes 13.7112
lfemur -60.7139 -4.34288 -11.4458
ltibia 66.9235
lfoot 1.30854 3.39091
ltoes -27.7889
